<mxfile host="app.diagrams.net" modified="2023-10-21T19:10:56.519Z" agent="Mozilla/5.0 (Macintosh; Intel Mac OS X 10_15_7) AppleWebKit/537.36 (KHTML, like Gecko) Chrome/118.0.0.0 Safari/537.36" etag="zNWzrtUwbTNj2LSHeDA3" version="21.2.1" type="device">
  <diagram name="Page-1" id="y_DA0ph3OXSqDyd_qChq">
    <mxGraphModel dx="1207" dy="782" grid="1" gridSize="10" guides="1" tooltips="1" connect="1" arrows="1" fold="1" page="1" pageScale="1" pageWidth="850" pageHeight="1100" math="0" shadow="0">
      <root>
        <mxCell id="0" />
        <mxCell id="1" parent="0" />
        <mxCell id="bseKjvn7FywciN3TXZNn-21" value="" style="rounded=0;whiteSpace=wrap;html=1;dashed=1;strokeWidth=2;fillColor=#f5f5f5;fontColor=#333333;strokeColor=#666666;" vertex="1" parent="1">
          <mxGeometry x="240" y="100" width="500" height="220" as="geometry" />
        </mxCell>
        <mxCell id="bseKjvn7FywciN3TXZNn-20" value="" style="rounded=0;whiteSpace=wrap;html=1;dashed=1;strokeWidth=2;fillColor=#f5f5f5;fontColor=#333333;strokeColor=#666666;" vertex="1" parent="1">
          <mxGeometry x="240" y="380" width="500" height="220" as="geometry" />
        </mxCell>
        <mxCell id="bseKjvn7FywciN3TXZNn-4" value="" style="rounded=0;whiteSpace=wrap;html=1;fillStyle=auto;fillColor=#dae8fc;strokeColor=#6c8ebf;dashed=1;" vertex="1" parent="1">
          <mxGeometry x="600" y="680" width="200" height="200" as="geometry" />
        </mxCell>
        <mxCell id="bseKjvn7FywciN3TXZNn-1" value="" style="strokeWidth=2;html=1;shape=mxgraph.flowchart.database;whiteSpace=wrap;fillColor=#1ba1e2;strokeColor=#006EAF;fontColor=#ffffff;" vertex="1" parent="1">
          <mxGeometry x="640" y="700" width="130" height="130" as="geometry" />
        </mxCell>
        <mxCell id="bseKjvn7FywciN3TXZNn-2" value="" style="shape=image;verticalLabelPosition=bottom;labelBackgroundColor=default;verticalAlign=top;aspect=fixed;imageAspect=0;image=https://encrypted-tbn0.gstatic.com/images?q=tbn:ANd9GcTgCPL83elr-eokPD8fQ1KhK5BVanZdHKKsQg&amp;usqp=CAU;" vertex="1" parent="1">
          <mxGeometry x="671.13" y="752.4" width="67.73" height="55.21" as="geometry" />
        </mxCell>
        <mxCell id="bseKjvn7FywciN3TXZNn-3" value="PostgreSQL" style="text;html=1;strokeColor=none;fillColor=none;align=center;verticalAlign=middle;whiteSpace=wrap;rounded=0;fontStyle=1;fontFamily=Times New Roman;fontSize=14;" vertex="1" parent="1">
          <mxGeometry x="640" y="840" width="130" height="30" as="geometry" />
        </mxCell>
        <mxCell id="bseKjvn7FywciN3TXZNn-8" value="" style="rounded=0;whiteSpace=wrap;html=1;fillColor=#dae8fc;strokeColor=#6c8ebf;" vertex="1" parent="1">
          <mxGeometry x="560" y="440" width="160" height="120" as="geometry" />
        </mxCell>
        <mxCell id="bseKjvn7FywciN3TXZNn-5" value="" style="endArrow=classic;startArrow=classic;html=1;rounded=0;exitX=-0.005;exitY=0.598;exitDx=0;exitDy=0;exitPerimeter=0;" edge="1" parent="1" source="bseKjvn7FywciN3TXZNn-4">
          <mxGeometry width="50" height="50" relative="1" as="geometry">
            <mxPoint x="600" y="560" as="sourcePoint" />
            <mxPoint x="720" y="500" as="targetPoint" />
            <Array as="points">
              <mxPoint x="560" y="800" />
              <mxPoint x="560" y="640" />
              <mxPoint x="680" y="640" />
              <mxPoint x="760" y="640" />
              <mxPoint x="760" y="500" />
              <mxPoint x="740" y="500" />
            </Array>
          </mxGeometry>
        </mxCell>
        <mxCell id="bseKjvn7FywciN3TXZNn-6" value="" style="endArrow=none;html=1;rounded=0;" edge="1" parent="1">
          <mxGeometry width="50" height="50" relative="1" as="geometry">
            <mxPoint x="760" y="220" as="sourcePoint" />
            <mxPoint x="760" y="520" as="targetPoint" />
          </mxGeometry>
        </mxCell>
        <mxCell id="bseKjvn7FywciN3TXZNn-7" value="" style="image;aspect=fixed;perimeter=ellipsePerimeter;html=1;align=center;shadow=0;dashed=0;fontColor=#4277BB;labelBackgroundColor=default;fontSize=12;spacingTop=3;image=img/lib/ibm/miscellaneous/microservices_application.svg;" vertex="1" parent="1">
          <mxGeometry x="610" y="450" width="60" height="60" as="geometry" />
        </mxCell>
        <mxCell id="bseKjvn7FywciN3TXZNn-9" value="&lt;font style=&quot;font-size: 14px;&quot;&gt;&lt;b&gt;Microservices&lt;/b&gt;&lt;/font&gt;" style="text;html=1;strokeColor=none;fillColor=none;align=center;verticalAlign=middle;whiteSpace=wrap;rounded=0;" vertex="1" parent="1">
          <mxGeometry x="590" y="520" width="110" height="30" as="geometry" />
        </mxCell>
        <mxCell id="bseKjvn7FywciN3TXZNn-10" value="" style="rounded=0;whiteSpace=wrap;html=1;fillColor=#dae8fc;strokeColor=#6c8ebf;" vertex="1" parent="1">
          <mxGeometry x="560" y="160" width="160" height="120" as="geometry" />
        </mxCell>
        <mxCell id="bseKjvn7FywciN3TXZNn-11" value="" style="image;aspect=fixed;perimeter=ellipsePerimeter;html=1;align=center;shadow=0;dashed=0;fontColor=#4277BB;labelBackgroundColor=default;fontSize=12;spacingTop=3;image=img/lib/ibm/miscellaneous/microservices_application.svg;" vertex="1" parent="1">
          <mxGeometry x="610" y="170" width="60" height="60" as="geometry" />
        </mxCell>
        <mxCell id="bseKjvn7FywciN3TXZNn-12" value="&lt;font style=&quot;font-size: 14px;&quot;&gt;&lt;b&gt;Microservices&lt;/b&gt;&lt;/font&gt;" style="text;html=1;strokeColor=none;fillColor=none;align=center;verticalAlign=middle;whiteSpace=wrap;rounded=0;" vertex="1" parent="1">
          <mxGeometry x="590" y="240" width="110" height="30" as="geometry" />
        </mxCell>
        <mxCell id="bseKjvn7FywciN3TXZNn-13" value="" style="endArrow=classic;html=1;rounded=0;entryX=1;entryY=0.5;entryDx=0;entryDy=0;" edge="1" parent="1" target="bseKjvn7FywciN3TXZNn-10">
          <mxGeometry width="50" height="50" relative="1" as="geometry">
            <mxPoint x="760" y="220" as="sourcePoint" />
            <mxPoint x="450" y="280" as="targetPoint" />
            <Array as="points" />
          </mxGeometry>
        </mxCell>
        <mxCell id="bseKjvn7FywciN3TXZNn-16" value="" style="rounded=0;whiteSpace=wrap;html=1;fillColor=#dae8fc;strokeColor=#6c8ebf;" vertex="1" parent="1">
          <mxGeometry x="280" y="120" width="200" height="160" as="geometry" />
        </mxCell>
        <mxCell id="bseKjvn7FywciN3TXZNn-14" value="" style="sketch=0;pointerEvents=1;shadow=0;dashed=0;html=1;strokeColor=none;fillColor=#505050;labelPosition=center;verticalLabelPosition=bottom;verticalAlign=top;outlineConnect=0;align=center;shape=mxgraph.office.servers.server_side_code;" vertex="1" parent="1">
          <mxGeometry x="300" y="130" width="160" height="120" as="geometry" />
        </mxCell>
        <mxCell id="bseKjvn7FywciN3TXZNn-17" value="" style="rounded=0;whiteSpace=wrap;html=1;fillColor=#dae8fc;strokeColor=#6c8ebf;" vertex="1" parent="1">
          <mxGeometry x="280" y="400" width="200" height="160" as="geometry" />
        </mxCell>
        <mxCell id="bseKjvn7FywciN3TXZNn-15" value="" style="sketch=0;pointerEvents=1;shadow=0;dashed=0;html=1;strokeColor=none;fillColor=#505050;labelPosition=center;verticalLabelPosition=bottom;verticalAlign=top;outlineConnect=0;align=center;shape=mxgraph.office.servers.server_side_code;" vertex="1" parent="1">
          <mxGeometry x="300" y="410" width="160" height="120" as="geometry" />
        </mxCell>
        <mxCell id="bseKjvn7FywciN3TXZNn-18" value="&lt;b&gt;&lt;font style=&quot;font-size: 14px;&quot;&gt;Server&lt;/font&gt;&lt;/b&gt;" style="text;html=1;strokeColor=none;fillColor=none;align=center;verticalAlign=middle;whiteSpace=wrap;rounded=0;" vertex="1" parent="1">
          <mxGeometry x="350" y="250" width="60" height="30" as="geometry" />
        </mxCell>
        <mxCell id="bseKjvn7FywciN3TXZNn-19" value="&lt;b&gt;&lt;font style=&quot;font-size: 14px;&quot;&gt;Server&lt;/font&gt;&lt;/b&gt;" style="text;html=1;strokeColor=none;fillColor=none;align=center;verticalAlign=middle;whiteSpace=wrap;rounded=0;" vertex="1" parent="1">
          <mxGeometry x="350" y="530" width="60" height="30" as="geometry" />
        </mxCell>
        <mxCell id="bseKjvn7FywciN3TXZNn-22" value="&lt;b&gt;&lt;font style=&quot;font-size: 14px;&quot;&gt;Client-side&lt;/font&gt;&lt;/b&gt;" style="text;html=1;strokeColor=none;fillColor=none;align=center;verticalAlign=middle;whiteSpace=wrap;rounded=0;" vertex="1" parent="1">
          <mxGeometry x="450" y="280" width="120" height="30" as="geometry" />
        </mxCell>
        <mxCell id="bseKjvn7FywciN3TXZNn-24" value="&lt;span style=&quot;font-size: 14px;&quot;&gt;&lt;b&gt;Server-side&lt;/b&gt;&lt;/span&gt;" style="text;html=1;strokeColor=none;fillColor=none;align=center;verticalAlign=middle;whiteSpace=wrap;rounded=0;" vertex="1" parent="1">
          <mxGeometry x="470" y="560" width="100" height="30" as="geometry" />
        </mxCell>
        <mxCell id="bseKjvn7FywciN3TXZNn-25" value="" style="fontColor=#0066CC;verticalAlign=top;verticalLabelPosition=bottom;labelPosition=center;align=center;html=1;outlineConnect=0;fillColor=#CCCCCC;strokeColor=#6881B3;gradientColor=none;gradientDirection=north;strokeWidth=2;shape=mxgraph.networks.load_balancer;rotation=90;" vertex="1" parent="1">
          <mxGeometry x="-6.57" y="333.44" width="322.5" height="50" as="geometry" />
        </mxCell>
        <mxCell id="bseKjvn7FywciN3TXZNn-26" value="" style="endArrow=classic;html=1;rounded=0;entryX=0;entryY=0.5;entryDx=0;entryDy=0;" edge="1" parent="1" target="bseKjvn7FywciN3TXZNn-20">
          <mxGeometry width="50" height="50" relative="1" as="geometry">
            <mxPoint x="180" y="400" as="sourcePoint" />
            <mxPoint x="230" y="350" as="targetPoint" />
          </mxGeometry>
        </mxCell>
        <mxCell id="bseKjvn7FywciN3TXZNn-27" value="" style="endArrow=classic;html=1;rounded=0;entryX=0;entryY=0.5;entryDx=0;entryDy=0;" edge="1" parent="1" source="bseKjvn7FywciN3TXZNn-25" target="bseKjvn7FywciN3TXZNn-21">
          <mxGeometry width="50" height="50" relative="1" as="geometry">
            <mxPoint x="200" y="310" as="sourcePoint" />
            <mxPoint x="250" y="260" as="targetPoint" />
            <Array as="points" />
          </mxGeometry>
        </mxCell>
        <mxCell id="bseKjvn7FywciN3TXZNn-28" value="&lt;b&gt;&lt;font style=&quot;font-size: 14px;&quot;&gt;Load Balancer&lt;/font&gt;&lt;/b&gt;" style="text;html=1;strokeColor=none;fillColor=none;align=center;verticalAlign=middle;whiteSpace=wrap;rounded=0;" vertex="1" parent="1">
          <mxGeometry x="99.68" y="530" width="110" height="30" as="geometry" />
        </mxCell>
        <mxCell id="bseKjvn7FywciN3TXZNn-29" value="" style="shadow=0;dashed=0;html=1;strokeColor=none;fillColor=#4495D1;labelPosition=center;verticalLabelPosition=bottom;verticalAlign=top;align=center;outlineConnect=0;shape=mxgraph.veeam.2d.web_ui;" vertex="1" parent="1">
          <mxGeometry x="10" y="300" width="80" height="100" as="geometry" />
        </mxCell>
        <mxCell id="bseKjvn7FywciN3TXZNn-30" value="" style="endArrow=classic;html=1;rounded=0;" edge="1" parent="1" source="bseKjvn7FywciN3TXZNn-29">
          <mxGeometry width="50" height="50" relative="1" as="geometry">
            <mxPoint x="470" y="340" as="sourcePoint" />
            <mxPoint x="130" y="360" as="targetPoint" />
            <Array as="points">
              <mxPoint x="90" y="360" />
            </Array>
          </mxGeometry>
        </mxCell>
        <mxCell id="bseKjvn7FywciN3TXZNn-31" value="&lt;span style=&quot;font-size: 14px;&quot;&gt;&lt;b&gt;User Interface&lt;/b&gt;&lt;/span&gt;" style="text;html=1;strokeColor=none;fillColor=none;align=center;verticalAlign=middle;whiteSpace=wrap;rounded=0;" vertex="1" parent="1">
          <mxGeometry y="410" width="100" height="30" as="geometry" />
        </mxCell>
        <mxCell id="bseKjvn7FywciN3TXZNn-32" value="" style="outlineConnect=0;dashed=0;verticalLabelPosition=bottom;verticalAlign=top;align=center;html=1;shape=mxgraph.aws3.internet;fillColor=#D2D3D3;gradientColor=none;" vertex="1" parent="1">
          <mxGeometry x="21" y="40.5" width="79.5" height="79.5" as="geometry" />
        </mxCell>
        <mxCell id="bseKjvn7FywciN3TXZNn-33" value="" style="outlineConnect=0;dashed=0;verticalLabelPosition=bottom;verticalAlign=top;align=center;html=1;shape=mxgraph.aws3.http_protocol;fillColor=#5294CF;gradientColor=none;" vertex="1" parent="1">
          <mxGeometry x="40" y="180" width="41.5" height="40" as="geometry" />
        </mxCell>
        <mxCell id="bseKjvn7FywciN3TXZNn-34" value="" style="endArrow=classic;startArrow=classic;html=1;rounded=0;" edge="1" parent="1" target="bseKjvn7FywciN3TXZNn-32">
          <mxGeometry width="50" height="50" relative="1" as="geometry">
            <mxPoint x="60" y="180" as="sourcePoint" />
            <mxPoint x="110" y="130" as="targetPoint" />
          </mxGeometry>
        </mxCell>
        <mxCell id="bseKjvn7FywciN3TXZNn-35" value="" style="endArrow=classic;startArrow=classic;html=1;rounded=0;entryX=0.5;entryY=1;entryDx=0;entryDy=0;entryPerimeter=0;exitX=0.633;exitY=0.015;exitDx=0;exitDy=0;exitPerimeter=0;" edge="1" parent="1" source="bseKjvn7FywciN3TXZNn-29" target="bseKjvn7FywciN3TXZNn-33">
          <mxGeometry width="50" height="50" relative="1" as="geometry">
            <mxPoint x="79" y="290" as="sourcePoint" />
            <mxPoint x="99.68" y="250" as="targetPoint" />
          </mxGeometry>
        </mxCell>
      </root>
    </mxGraphModel>
  </diagram>
</mxfile>
